<svg xmlns="http://www.w3.org/2000/svg" viewBox="0 0 201.89844 76.78955">
  <g id="Livello_2" data-name="Livello 2">
    <g id="Graphics">
      <g>
        <path d="M200.78638,46.28174a12.18773,12.18773,0,0,0,.94726-4.7334,11.104,11.104,0,0,0-6.85815-10.458,16.57832,16.57832,0,0,0,5.78857-13.05371c0-10.51269-7.854-17.57519-19.54394-17.57519H167.00244a6.76568,6.76568,0,0,0-1.83081.2832,6.76568,6.76568,0,0,0-1.83081-.2832H154.759a6.74427,6.74427,0,0,0-.93237.09521,6.80367,6.80367,0,0,0-1.072-.09521h-8.48853a6.81327,6.81327,0,0,0-5.86035,3.33886A6.81022,6.81022,0,0,0,132.54663.46143h-8.79712a6.80377,6.80377,0,0,0-4.31933,1.5581A24.89863,24.89863,0,0,0,109.22632,0H107.6582A24.16022,24.16022,0,0,0,96.5979,2.46826,6.78267,6.78267,0,0,0,93.12964.772,61.04929,61.04929,0,0,0,83.04761,0h-.40039C73.70239,0,68.21973,2.35449,64.87451,5.46a6.79078,6.79078,0,0,0-6.561-4.99853H51.08569a6.80077,6.80077,0,0,0-3.69091,1.08691A6.79669,6.79669,0,0,0,43.70386.46143H36.04517A6.79429,6.79429,0,0,0,34.94141.562,6.731,6.731,0,0,0,33.949.46143H26.07471a6.80892,6.80892,0,0,0-4.9065,2.08691A6.80416,6.80416,0,0,0,16.2627.46143H7.89648A6.80824,6.80824,0,0,0,1.09326,7.56934c.29663,6.78222.29663,13.83007-.00146,20.94824a6.81078,6.81078,0,0,0,1.89013,4.99853c.03833.03955.08594.06739.125.10645A11.01262,11.01262,0,0,0,1.28833,46.458a4.25922,4.25922,0,0,0-.96655,2.68506V72.49072a4.29887,4.29887,0,0,0,4.29883,4.29883h192.979a4.29887,4.29887,0,0,0,4.29883-4.29883V49.14307A4.26523,4.26523,0,0,0,200.78638,46.28174Z" fill="red"/>
        <g>
          <path d="M7.89941,28.80273q.46143-11.02808,0-21.5332H16.2666L21.127,21.81982h.18457L26.08008,7.26953h7.875q-.416,10.52051,0,21.5332H27.58691c.123-4.55273.33887-9.13623.43067-13.689H27.833l-4.79883,13.689H19.06641L14.082,15.11377h-.18359c.123,3.32227.49218,10.3667.64551,13.689Z" fill="#fff"/>
          <path d="M43.24609,28.80273c.0918-2.03027.18457-4.92187.2461-7.229-2.0918-4.36816-4.73731-9.25928-7.44434-14.3042H43.707c.92383,2.73779,2.89258,7.32129,3.66113,9.813h.2461c.73828-2.4917,2.61426-7.16748,3.47558-9.813h7.2295c-2.61426,4.86035-4.9834,9.44385-7.2295,14.11963.03125,2.33789.123,5.168.21582,7.41357Z" fill="#fff"/>
          <path d="M91.97266,27.94141a41.74878,41.74878,0,0,1-9.93555,1.32275h-.40039c-9.78125,0-15.042-3.999-15.042-11.35107,0-7.41358,5.32129-11.105,16.05761-11.105h.40039a54.57268,54.57268,0,0,1,8.95118.67675l-.64649,5.96778a48.96207,48.96207,0,0,0-8.52051-.83057c-5.22949,0-7.84472,1.78418-7.84472,5.32178v.09228c0,3.50684,2.67676,5.35254,7.7832,5.35254a38.52435,38.52435,0,0,0,8.55176-1.01513Z" fill="#fff"/>
          <path d="M107.66309,6.80811h1.56933c8.21289,0,13.6582,3.999,13.6582,11.1665,0,6.98291-5.168,11.28955-13.6582,11.28955h-1.56933c-8.42871,0-13.59668-4.30664-13.59668-11.28955C94.06641,10.80713,99.48047,6.80811,107.66309,6.80811Zm6.8291,11.28955v-.15381c0-3.90674-1.96875-6.0293-5.96778-6.0293-4.03027,0-6.05957,2.15332-6.05957,6.0293v.15381c0,3.876,2.06055,6.06005,6.05957,6.06005C112.49219,24.15771,114.49219,22.00439,114.49219,18.09766Z" fill="#fff"/>
          <path d="M123.75293,7.26953h8.79785l5.75195,16.48828h.33887l5.62988-16.48828h8.49024l-8.09082,21.5332H131.93555Z" fill="#fff"/>
          <path d="M154.76172,28.80273a209.46027,209.46027,0,0,0,0-21.5332h8.583a209.46027,209.46027,0,0,0,0,21.5332Z" fill="#fff"/>
          <path d="M181.125,7.26953c7.96777,0,12.73633,4.06055,12.73633,10.7666,0,6.64453-4.83008,10.7666-12.73633,10.7666H167.00586a209.46027,209.46027,0,0,0,0-21.5332Zm-1.10742,16.30371c3.59961,0,5.41406-1.90722,5.41406-5.44482v-.15381c0-3.72217-1.81445-5.50635-5.41406-5.50635H175.3418c-.0918,2.98389-.15332,8.05957,0,11.105Z" fill="#fff"/>
          <path d="M7.77051,49.489a29.2913,29.2913,0,0,0,9.38379,1.91516h.35644c2.626,0,4.24024-.71142,4.24024-2.02465,0-3.74817-14.93848-1.28577-14.93848-8.09827,0-3.502,3.94043-5.28027,11.57324-5.28027h.35547a94.21836,94.21836,0,0,1,10.42383.57458l-.38281,4.92456a39.8528,39.8528,0,0,0-8.48145-1.09436h-.02734c-3.584,0-5.44434.60193-5.44434,1.86048,0,3.31042,14.69141,1.03967,14.69141,7.87939,0,3.72083-3.83008,5.82751-10.80664,5.82751H18.3584A49.31237,49.31237,0,0,1,7.169,54.6051Z" fill="#fff"/>
          <path d="M43.48047,36.001H44.875c7.30469,0,12.14746,3.55664,12.14746,9.93139,0,6.21045-4.5957,10.04077-12.14746,10.04077H43.48047c-7.49707,0-12.09277-3.83032-12.09277-10.04077C31.3877,39.55762,36.20215,36.001,43.48047,36.001Zm6.07324,10.04077V45.905c0-3.47461-1.751-5.36243-5.30762-5.36243-3.584,0-5.38964,1.91516-5.38964,5.36243v.13672c0,3.44726,1.833,5.38977,5.38964,5.38977C47.77539,51.43152,49.55371,49.51636,49.55371,46.04175Z" fill="#fff"/>
          <path d="M67.2334,36.41138c-.21875,3.09155-.30078,8.28979-.30078,9.93139,0,3.69336,1.2041,4.84253,4.40527,4.84253,3.22754,0,4.37695-1.28589,4.37695-5.00671,0-1.6416-.082-6.621-.32812-9.76721H82.9375c-.13672,3.03686-.19141,9.73987-.19141,10.69738,0,6.18311-3.14648,8.83692-10.72461,8.83692H70.626c-7.60547,0-10.834-2.62647-10.834-8.80957,0-1.03967-.02734-7.68787-.1914-10.72473Z" fill="#fff"/>
          <path d="M84.749,36.41138h7.8252l5.11621,14.66443h.30078l5.00684-14.66443h7.55078l-7.19531,19.15136H92.02637Z" fill="#fff"/>
          <path d="M129.7334,44.23608l-.30078,3.44727h-9.57617c0,1.58679,0,2.9.02734,3.91235,3.33789-.02746,8.23535-.08215,11.65527-.219l-.35547,4.186H112.46973a186.39825,186.39825,0,0,0,0-19.15136H131.375l-.35547,4.24072c-3.33789-.1095-8.04394-.219-11.13574-.19153-.02734.98486-.02734,2.2981-.02734,3.77551Z" fill="#fff"/>
          <path d="M134.335,55.56274a159.80664,159.80664,0,0,0,0-19.15136h7.71484L150.44922,47.738H150.75c-.38281-3.61145-.4375-9.71241-.57422-11.32666h7.44141a165.71416,165.71416,0,0,0,0,19.15136h-7.60547L141.94043,44.3728h-.30078c.02734,2.18872.1914,8.94641.21875,11.18994Z" fill="#fff"/>
          <path d="M160.90625,55.56274a186.39258,186.39258,0,0,0,0-19.15136h7.63281a186.39825,186.39825,0,0,0,0,19.15136Z" fill="#fff"/>
          <path d="M171.8252,55.56274a186.39825,186.39825,0,0,0,0-19.15136h14.63671c5.66407,0,8.45411,1.61425,8.45411,5.14355s-2.708,5.25293-6.94922,5.25293h-1.58692l.02735.27356c1.17675,2.48962,3.69336,3.80286,6.89453,3.80286a10.21871,10.21871,0,0,0,2.16113-.19153c.02734,1.61426.11035,3.28308.27441,4.92468a15.56939,15.56939,0,0,1-3.33789.35571c-5.581,0-9.19336-2.62646-10.23242-7.57849h-2.98242c.082,2.32556.13672,4.89722.27344,7.16809ZM185.2041,45.3031c1.96973,0,2.59863-.84814,2.59863-2.48975V42.704c0-1.39539-.60156-2.40759-2.57128-2.40759h-6.01954c0,.8208-.05468,4.2406-.05468,5.00671Z" fill="#fff"/>
        </g>
      </g>
    </g>
  </g>
</svg>
