<svg xmlns="http://www.w3.org/2000/svg" viewBox="0 0 126.16504 43.6402">
  <g id="Livello_2" data-name="Livello 2">
    <g id="Livello_2-2" data-name="Livello 2">
      <g>
        <path d="M125.46773,29.43538l-.02167-.44954a7.60719,7.60719,0,0,0,.616-3.02252,6.9389,6.9389,0,0,0-4.28569-6.5352,10.35961,10.35961,0,0,0,3.61747-8.15721c0-6.569-4.908-10.98252-12.21318-10.98252h-8.82191a4.22439,4.22439,0,0,0-1.14408.177,4.22378,4.22378,0,0,0-1.14407-.177H96.708A4.21854,4.21854,0,0,0,96.12537.348a4.24772,4.24772,0,0,0-.67-.05957H90.15088a4.25728,4.25728,0,0,0-3.662,2.08664A4.25529,4.25529,0,0,0,82.82758.28839H77.33034a4.25142,4.25142,0,0,0-2.6992.97369A15.55974,15.55974,0,0,0,68.25491,0h-.98a15.09592,15.09592,0,0,0-6.91156,1.54255A4.2362,4.2362,0,0,0,58.1961.48249,38.1439,38.1439,0,0,0,51.896,0h-.25025C46.05625,0,42.63025,1.47151,40.5396,3.412A4.2435,4.2435,0,0,0,36.43965.28839H31.92311a4.25176,4.25176,0,0,0-2.30636.67906A4.24857,4.24857,0,0,0,27.3102.28839H22.52441a4.232,4.232,0,0,0-.68959.06294,4.21951,4.21951,0,0,0-.62033-.06294H16.294a4.25522,4.25522,0,0,0-3.0662,1.30408A4.25136,4.25136,0,0,0,10.16251.28839H4.93461A4.25485,4.25485,0,0,0,.68316,4.73013C.8686,8.96821.8686,13.37249.68237,17.82046A4.256,4.256,0,0,0,1.86345,20.944c.02395.02493.05363.0422.07817.06649A6.49948,6.49948,0,0,0,0,25.79213,6.42994,6.42994,0,0,0,.93252,29.2722c-.0283.06719-.04592.13893-.07075.20765a3.45765,3.45765,0,0,0-.6607,2.02772v8.648A3.48468,3.48468,0,0,0,3.68574,43.6402H122.68046a3.4846,3.4846,0,0,0,3.48458-3.48468v-8.648A3.45439,3.45439,0,0,0,125.46773,29.43538Z" fill="red"/>
        <g>
          <path d="M4.93652,17.99909q.28859-6.89281,0-13.45849H10.166l3.0376,9.09423h.11573l2.98-9.09423h4.92187q-.25928,6.57567,0,13.45849h-3.98c.07715-2.84521.21143-5.71.269-8.55566H17.395l-2.999,8.55566H11.91553L8.80127,9.44343H8.68555c.07714,2.07666.30761,6.479.4038,8.55566Z" fill="#fff"/>
          <path d="M27.0249,17.99909c.05762-1.269.11524-3.07617.15381-4.51806-1.30713-2.73-2.96094-5.78711-4.65283-8.94043h4.7876c.57666,1.71142,1.80712,4.57617,2.28759,6.1333h.15381c.46143-1.55713,1.63428-4.4795,2.17285-6.1333H36.4458c-1.63428,3.03808-3.11475,5.90283-4.51807,8.82519.01905,1.46094.07666,3.23.13428,4.6333Z" fill="#fff"/>
          <path d="M57.47656,17.46052a26.09558,26.09558,0,0,1-6.21045.82715H51.0166c-6.11426,0-9.40185-2.49952-9.40185-7.09473,0-4.6333,3.32617-6.94043,10.03613-6.94043h.25a34.13663,34.13663,0,0,1,5.59472.42285l-.4038,3.73a30.623,30.623,0,0,0-5.32569-.519c-3.26855,0-4.90234,1.11523-4.90234,3.32617v.05762c0,2.1914,1.67236,3.34521,4.86426,3.34521a24.09041,24.09041,0,0,0,5.34472-.63427Z" fill="#fff"/>
          <path d="M67.27978,4.25251h.98047c5.1333,0,8.53662,2.49951,8.53662,6.979,0,4.36426-3.23,7.05616-8.53662,7.05616h-.98047c-5.26806,0-8.498-2.6919-8.498-7.05616C58.78174,6.752,62.16553,4.25251,67.27978,4.25251Zm4.26807,7.05566v-.0957c0-2.44189-1.23047-3.76855-3.73-3.76855-2.51855,0-3.78711,1.3457-3.78711,3.76855v.0957c0,2.42286,1.28809,3.7876,3.78711,3.7876C70.29834,15.09577,71.54785,13.75007,71.54785,11.30817Z" fill="#fff"/>
          <path d="M77.33252,4.5406h5.49853l3.59522,10.30566h.21142L90.15625,4.5406H95.4624L90.40625,17.99909H82.44678Z" fill="#fff"/>
          <path d="M96.71,17.99909a130.77724,130.77724,0,0,0,0-13.45849h5.36426a130.77724,130.77724,0,0,0,0,13.45849Z" fill="#fff"/>
          <path d="M113.18555,4.5406c4.98,0,7.96,2.53808,7.96,6.72949,0,4.15283-3.01856,6.729-7.96,6.729h-8.82471a130.77724,130.77724,0,0,0,0-13.45849Zm-.6919,10.18994c2.24951,0,3.38379-1.1919,3.38379-3.40284v-.09619c0-2.32617-1.13428-3.4414-3.38379-3.4414h-2.92236c-.05762,1.86474-.09619,5.03711,0,6.94043Z" fill="#fff"/>
          <path d="M4.85644,30.9239a18.315,18.315,0,0,0,5.86719,1.19726h.22217c1.64209,0,2.65137-.44482,2.65137-1.26562,0-2.34326-9.33936-.8042-9.33936-5.063,0-2.18945,2.46289-3.30127,7.23535-3.30127h.22266a58.96569,58.96569,0,0,1,6.5166.35889l-.23926,3.0791a24.90561,24.90561,0,0,0-5.30273-.68408h-.01709c-2.24072,0-3.40381.376-3.40381,1.16308,0,2.06983,9.18555.6499,9.18555,4.92627,0,2.32617-2.395,3.64307-6.75635,3.64307h-.22266a30.83361,30.83361,0,0,1-6.99609-.855Z" fill="#fff"/>
          <path d="M27.17432,22.49128h.87255c4.5669,0,7.59424,2.22363,7.59424,6.209,0,3.88282-2.87353,6.27735-7.59424,6.27735h-.87255c-4.687,0-7.56055-2.39453-7.56055-6.27735C19.61377,24.71491,22.62451,22.49128,27.17432,22.49128Zm3.79736,6.27734v-.08545c0-2.17236-1.09473-3.35254-3.31836-3.35254a3.00562,3.00562,0,0,0-3.36963,3.35254v.08545a3.02516,3.02516,0,0,0,3.36963,3.36963C29.85986,32.13825,30.97168,30.941,30.97168,28.76862Z" fill="#fff"/>
          <path d="M42.0166,22.74763c-.13672,1.9331-.188,5.1831-.188,6.209,0,2.30957.75293,3.02783,2.75391,3.02783,2.01855,0,2.73682-.80371,2.73682-3.13037,0-1.02637-.05127-4.13916-.20508-6.10644H51.835c-.08545,1.89892-.11963,6.08935-.11963,6.688,0,3.86573-1.9668,5.52491-6.70508,5.52491h-.87256c-4.75488,0-6.77343-1.64209-6.77343-5.50782,0-.6499-.01709-4.80615-.11963-6.70507Z" fill="#fff"/>
          <path d="M52.95947,22.74763h4.89209l3.19873,9.16845h.188l3.13037-9.16845h4.72119L64.59131,34.72126H57.50976Z" fill="#fff"/>
          <path d="M81.07568,27.63972,80.88721,29.795H74.90039c0,.99219,0,1.813.01709,2.4458,2.08691-.01709,5.14893-.05127,7.28711-.13672l-.22266,2.61719H70.28223a116.58018,116.58018,0,0,0,0-11.97363H82.10205L81.87939,25.399c-2.08691-.06836-5.0288-.13671-6.96191-.11963-.01709.61573-.01709,1.43653-.01709,2.36036Z" fill="#fff"/>
          <path d="M83.9458,34.72126a99.94481,99.94481,0,0,0,0-11.97363h4.82373l5.251,7.08154H94.209c-.23974-2.25781-.27392-6.07227-.35937-7.08154h4.65283a103.42066,103.42066,0,0,0,0,11.97363H93.74707l-5.0459-6.99609h-.18848c.01709,1.36865.11963,5.59326.13721,6.99609Z" fill="#fff"/>
          <path d="M100.55029,34.72126a116.5745,116.5745,0,0,0,0-11.97363h4.77246a116.30265,116.30265,0,0,0,0,11.97363Z" fill="#fff"/>
          <path d="M107.37305,34.72126a116.58018,116.58018,0,0,0,0-11.97363h9.15136c3.54053,0,5.28516,1.00927,5.28516,3.21582s-1.69336,3.28418-4.34473,3.28418h-.9917l.01709.1709a4.45115,4.45115,0,0,0,4.31006,2.37792,6.36383,6.36383,0,0,0,1.35156-.12011c.01709,1.00927.06836,2.05273.1709,3.0791a9.736,9.736,0,0,1-2.08691.22217c-3.48926,0-5.74707-1.64209-6.397-4.7378h-1.86475c.05127,1.45362.08594,3.06153.17139,4.48145Zm8.36425-6.41455c1.23194,0,1.625-.53027,1.625-1.55664v-.06836c0-.87207-.376-1.50488-1.60791-1.50488h-3.76318c0,.51318-.03418,2.65087-.03418,3.12988Z" fill="#fff"/>
        </g>
      </g>
    </g>
  </g>
</svg>
