<svg xmlns="http://www.w3.org/2000/svg" viewBox="0 0 100 100">
  <g id="Livello_2" data-name="Livello 2">
    <g id="Graphics">
      <rect width="100" height="100" rx="30" fill="red"/>
      <g>
        <g>
          <g>
            <path d="M11.08365,29.71565q.28909-9.8853,0-19.30193h5.10089l3.06053,13.31835h.11049l2.9783-13.31835h5.10089q-.28911,9.43046,0,19.30193H23.40928c.08224-4.13612.22036-8.27223.30323-12.40835h-.13812l-2.923,12.40835H18.00453L14.944,17.3073h-.11049c.08287,2.978.30323,9.43037.41372,12.40835Z" fill="#fff"/>
            <path d="M33.25007,29.71565c.05525-1.81984.1105-4.54968.13749-6.61782-1.29578-3.9156-2.95-8.16189-4.65954-12.68411h4.77c.57946,2.45408,1.87524,6.728,2.3712,8.96156h.08287c.469-2.23356,1.73713-6.59019,2.289-8.96156h4.46681c-1.62664,4.35663-3.1434,8.32732-4.54968,12.51868.02762,2.09561.08287,4.77036.13812,6.78325Z" fill="#fff"/>
          </g>
          <g>
            <path d="M61.97829,29.08141a8.79081,8.79081,0,0,1-4.3017,1.0478H57.5391c-5.10152,0-7.77595-3.44679-7.77595-9.87156C49.76315,13.55713,52.65857,10,58.06269,10h.11049a16.35382,16.35382,0,0,1,3.83273.52406l-.33085,3.2812a9.72939,9.72939,0,0,0-2.95067-.49627c-3.28089,0-4.93578,2.20594-4.93578,6.72815v.08271c0,4.41188,1.68251,6.67291,4.85354,6.67291a5.92962,5.92962,0,0,0,2.97766-.772Z" fill="#fff"/>
            <path d="M62.99658,19.81647q1.07542.08286,2.15085.08271c.90969,0,1.79237-.02747,2.59157-.08271,0,1.15813-.02763,2.50932,0,3.47441a45.18084,45.18084,0,0,0-4.74242,0C63.0242,21.74664,63.0242,21.08494,62.99658,19.81647Z" fill="#fff"/>
            <path d="M71.32249,29.71565c.19336-5.34935.22036-10.25766.11049-15.24853h-.13811c-.05525,2.28866-.90969,3.557-2.37121,3.557V13.66746c1.4339,0,2.15085-.85475,2.39883-2.70237h4.08134c-.221,6.287-.221,12.16036,0,18.75056Z" fill="#fff"/>
            <path d="M86.84552,19.29257a4.68652,4.68652,0,0,1-4.6878,4.10865c-3.00529,0-4.9634-2.37153-4.9634-6.09392,0-4.081,2.42645-6.70053,6.0112-6.70053H83.564c3.75049,0,6.06645,3.47426,6.06645,9.04427,0,6.20425-3.2539,10.4507-7.58259,10.4507h-.16574a11.28917,11.28917,0,0,1-3.28152-.57914c.13811-.96509.19336-1.76475.27623-3.0056a8.31593,8.31593,0,0,0,2.92242.55152h.05524c2.9783,0,5.0739-3.11594,5.10152-7.77595ZM83.09566,20.8368c1.54376,0,2.7573-1.46152,2.7573-3.7778v-.05509c0-2.45407-1.13067-3.97069-2.61981-3.97069-1.62664,0-2.75731,1.4339-2.75731,3.94307v.05525C80.47584,19.4029,81.60651,20.8368,83.09566,20.8368Z" fill="#fff"/>
          </g>
        </g>
        <g>
          <path d="M10.93219,52.20414A26.29649,26.29649,0,0,0,20.372,54.3796h.073c3.35565,0,4.94155-1.18,4.94155-2.913,0-5.05174-15.45011-1.6963-15.45011-10.69368,0-4.6093,3.945-7.07987,11.98363-7.07987h.36856a75.95477,75.95477,0,0,1,10.80492.77448l-.3694,6.30539a44.01522,44.01522,0,0,0-8.96044-1.1061h-.03694c-3.72421,0-5.494,1.1061-5.494,2.8024,0,4.57236,15.22931,1.25364,15.22931,10.3249,0,4.90419-4.05667,7.8172-11.46816,7.8172h-.36855a37.30482,37.30482,0,0,1-11.3204-1.84364Z" fill="#fff"/>
          <path d="M48.50173,33.69305h1.43814c7.55925,0,12.61162,4.79379,12.61162,13.42241S57.49912,60.61132,49.93987,60.61132H48.50173c-7.78,0-12.53689-5.16235-12.53689-13.49586C35.96484,38.48684,40.97943,33.69305,48.50173,33.69305Zm6.30581,13.533v-.18449c0-5.56785-1.99139-8.14924-5.53091-8.14924-3.54035,0-5.56785,2.61812-5.56785,8.14924v.18449c0,5.568,1.99056,8.186,5.53091,8.186C52.81615,55.412,54.80754,52.79412,54.80754,47.22607Z" fill="#fff"/>
          <path d="M73.86685,34.24631c-.22164,4.16665-.33162,11.17285-.33162,13.38526,0,5.53111,1.21649,7.30108,4.60909,7.30108s4.53521-1.77,4.53521-7.37475c0-2.36-.11082-9.07106-.33162-13.31159h7.817c-.18386,4.093-.2208,13.12731-.2208,14.45462,0,8.29679-3.24483,11.87366-11.09959,11.87366H77.40636c-7.92781,0-11.24652-3.53993-11.24652-11.79978,0-1.47507-.03694-10.43552-.18386-14.5285Z" fill="#fff"/>
        </g>
        <g>
          <path d="M10.45365,64.16459h5.27892l3.57721,19.66033h.13986l3.5433-19.66033h5.07124L22.99294,88.47921H15.59482Z" fill="#fff"/>
          <path d="M41.67367,74.41144l-.2098,3.5433H34.93462v6.35653c2.32688-.035,5.62648-.035,7.98938-.20874l-.24371,4.37668h-12.783q.36556-12.45215,0-24.31462H42.78413l-.24158,4.30727c-2.25907-.13881-5.48873-.20821-7.60793-.20821v6.14779Z" fill="#fff"/>
          <path d="M45.72982,88.47921q.41642-12.45215,0-24.31462h5.6964l5.4527,15.38749h.13987c-.27762-4.58488-.34755-13.33823-.45139-15.38749h5.10515q-.41643,11.88,0,24.31462H56.04608L50.871,73.96005h-.13986c.0339,2.7788.13986,11.671.13986,14.51916Z" fill="#fff"/>
          <path d="M64.5483,88.47921q.36239-12.45215,0-24.31462h5.209q-.31152,11.88,0,24.31462Z" fill="#fff"/>
          <path d="M72.67331,88.47921q.3147-12.45215,0-24.31462h9.032c4.58382,0,6.739,2.223,6.739,6.77348,0,4.16794-1.84159,6.35654-5.73243,6.32157h-.17378l.036.34755c.58914,4.481,2.08317,6.59971,4.65376,6.59971a4.6728,4.6728,0,0,0,1.59787-.24317c.03391,1.841.10384,2.605.17378,4.58488A6.45433,6.45433,0,0,1,86.56677,89c-4.0286,0-6.28554-3.26462-6.84289-10.24632H77.71064c.03391,2.952.06993,6.84236.17377,9.72553Zm8.12924-12.6087c2.11708,0,2.77827-1.21589,2.77827-3.57774V72.154c0-2.57058-.62517-3.82091-2.67443-3.82091H77.71064l-.036,7.53746Z" fill="#fff"/>
        </g>
      </g>
    </g>
  </g>
</svg>
