<svg xmlns="http://www.w3.org/2000/svg" viewBox="0 0 100 100">
  <g id="Graphics">
    <rect x="-0.05069" y="-0.5" width="100" height="100" rx="30" fill="red"/>
    <g>
      <path d="M36.65048,58.86914a27.53245,27.53245,0,0,1-8.33984,1.4458h-.33692c-8.23925,0-12.64453-4.37158-12.64453-12.40967,0-8.10449,4.47266-12.14013,13.48535-12.14013h.33594a35.777,35.777,0,0,1,7.5332.73974l-.53808,6.32227a32.18631,32.18631,0,0,0-7.19629-.90772c-4.43945,0-6.55859,1.9502-6.55859,6.01953V48.04c0,3.90088,2.32128,6.05322,6.59179,6.05322a25.274,25.274,0,0,0,7.12988-1.10937Z" fill="#fff"/>
      <path d="M38.43173,47.7373c1.24414.06739,2.48828.10108,3.7666.10108,1.58106,0,3.12793-.03369,4.50684-.10108-.03418,1.4126-.06738,3.06055,0,4.23731-2.25391-.0669-5.44824-.13428-8.27344,0C38.46493,50.09131,38.46493,49.28418,38.43173,47.7373Z" fill="#fff"/>
      <path d="M52.95907,59.81055c.30274-6.42334.37012-12.27491.20215-18.26123h-.26953c-.10058,2.95947-1.68066,4.6748-4.13574,4.6748v-5.6499c2.4209,0,3.7666-1.24463,4.20312-3.63233h7.23047c-.36914,7.668-.36914,14.83106,0,22.86866Z" fill="#fff"/>
      <path d="M79.99814,47.09814c-.84082,3.09424-4.03614,5.01124-8.17188,5.01124-5.21289,0-8.64355-2.89209-8.64355-7.43262,0-5.01074,4.10254-8.17188,10.22363-8.17188h1.11035c6.25488,0,10.32422,4.23731,10.32422,11.03076,0,7.5669-5.68359,12.74561-13.2168,12.74561h-.26953a27.09306,27.09306,0,0,1-5.71679-.706c.20214-1.17725.30273-2.3877.4707-3.86768a21.42914,21.42914,0,0,0,5.07812.63916h.13477c5.24609,0,8.81152-3.63184,8.84473-9.24854ZM73.47372,48.7124c2.72364,0,4.80957-1.54687,4.80957-4.33789v-.06738a4.25461,4.25461,0,0,0-4.57422-4.57373c-2.89257,0-4.80859,1.54687-4.80859,4.54v.06738C68.90048,47.16553,70.75009,48.7124,73.47372,48.7124Z" fill="#fff"/>
    </g>
  </g>
</svg>
