<svg xmlns="http://www.w3.org/2000/svg" viewBox="0 0 100 100">
  <g id="Graphics">
    <circle cx="49.94931" cy="49.5" r="50" fill="red"/>
    <g>
      <path d="M38.86044,58.56641a22.9679,22.9679,0,0,1-6.96,1.20654h-.28027c-6.875,0-10.55078-3.648-10.55078-10.35449,0-6.7627,3.73242-10.12989,11.25195-10.12989h.28125a29.84388,29.84388,0,0,1,6.28516.61719l-.44922,5.27539a26.859,26.859,0,0,0-6.00489-.75781c-3.7041,0-5.47168,1.62793-5.47168,5.02295v.08447c0,3.25488,1.93653,5.05078,5.5,5.05078a21.08558,21.08558,0,0,0,5.94922-.92578Z" fill="#fff"/>
      <path d="M40.34775,49.27783c1.03808.05615,2.07617.08447,3.14257.08447,1.31934,0,2.60938-.02832,3.76075-.08447-.02832,1.17871-.05664,2.55371,0,3.53613-1.88086-.05615-4.5459-.1123-6.90332,0C40.37607,51.24219,40.37607,50.56885,40.34775,49.27783Z" fill="#fff"/>
      <path d="M52.46982,59.35205c.252-5.35986.30859-10.24219.168-15.2373h-.22461c-.084,2.46923-1.40235,3.90039-3.45118,3.90039V43.30127a3.25162,3.25162,0,0,0,3.50782-3.03076H58.503c-.30859,6.398-.30859,12.375,0,19.08154Z" fill="#fff"/>
      <path d="M75.03036,48.74512c-.70117,2.58154-3.36718,4.18066-6.81836,4.18066-4.34961,0-7.21191-2.41308-7.21191-6.20117,0-4.18115,3.42383-6.81885,8.53027-6.81885h.92676c5.21875,0,8.61426,3.53565,8.61426,9.2041,0,6.31348-4.74219,10.63477-11.02832,10.63477h-.22461a22.56549,22.56549,0,0,1-4.76953-.58936c.168-.98193.252-1.99218.39258-3.22656a17.89918,17.89918,0,0,0,4.2373.53272h.11231c4.37695,0,7.35156-3.03028,7.37988-7.71631ZM69.587,50.0918c2.27247,0,4.0127-1.291,4.0127-3.61963V46.416a3.54994,3.54994,0,0,0-3.81641-3.81641c-2.41308,0-4.01269,1.29053-4.01269,3.78809v.05615C65.7706,48.80078,67.31357,50.0918,69.587,50.0918Z" fill="#fff"/>
    </g>
  </g>
</svg>
